<svg width="36" height="30" viewBox="0 0 36 30" fill="none" xmlns="http://www.w3.org/2000/svg">
<path d="M18.3198 -0.000183105C17.7276 -0.000183105 17.1081 0.126923 16.6045 0.381737L1.91738 7.79744C1.42201 8.0475 1.06801 8.4021 0.860711 8.81194C0.718752 9.09408 0.647476 9.38809 0.647476 9.68567C0.647476 9.98325 0.718158 10.2773 0.860711 10.56C1.06801 10.9692 1.42201 11.3238 1.91738 11.5739L16.6045 18.9896C17.1075 19.2438 17.7276 19.3715 18.3198 19.3715C18.912 19.3715 19.5315 19.2438 20.0352 18.9896L34.7223 11.5739C35.2177 11.3238 35.5717 10.9692 35.779 10.56C35.9215 10.2773 35.9928 9.98325 35.9928 9.68567C35.9928 9.38749 35.9209 9.09348 35.779 8.81194C35.5723 8.4021 35.2183 8.0481 34.7223 7.79744L20.0352 0.381737C19.5315 0.126923 18.912 -0.000183105 18.3198 -0.000183105ZM17.9878 16.2478L4.99177 9.68567L17.9878 3.1235C18.0466 3.0932 18.1696 3.07836 18.3198 3.07836C18.4701 3.07836 18.5931 3.0932 18.6519 3.1235L31.6479 9.68567L18.6519 16.2478C18.5931 16.2781 18.4701 16.293 18.3198 16.293C18.1702 16.293 18.0472 16.2775 17.9878 16.2478ZM0.80369 15.0575C0.693805 15.2755 0.640942 15.5078 0.63916 15.7364V15.7602C0.643318 16.3173 0.952182 16.8525 1.48378 17.1204L14.8831 23.8869C15.9303 24.4155 17.1271 24.6798 18.3198 24.6798V24.6858C19.5048 24.6858 20.7017 24.4197 21.7565 23.8869L35.1559 17.1204C35.9132 16.7391 36.2179 15.8148 35.836 15.0581C35.4535 14.3008 34.5304 13.9967 33.7731 14.3786L20.3732 21.1451C19.7632 21.4528 19.0474 21.6072 18.3198 21.6072V21.6138C17.5999 21.6138 16.8842 21.4569 16.2665 21.1451L2.86654 14.3786C2.64499 14.267 2.40859 14.2135 2.17576 14.2135C1.61446 14.2135 1.07395 14.5224 0.80369 15.0575ZM33.7731 20.1449L22.0945 26.0412C20.9339 26.628 19.6301 26.9215 18.3198 26.9215V26.9274C17.0167 26.9274 15.7141 26.6322 14.5452 26.0412L2.86654 20.1449C2.10923 19.7629 1.18621 20.0671 0.80369 20.8244C0.693805 21.0424 0.640942 21.274 0.63916 21.5027V21.5264C0.643318 22.0836 0.952182 22.6187 1.48378 22.8872L13.1618 28.7836C14.7596 29.5908 16.5397 29.9941 18.3198 29.9941V30C20.0922 30 21.8724 29.5949 23.4779 28.7836L35.1559 22.8872C35.9132 22.5053 36.2179 21.5817 35.836 20.8244C35.5657 20.2886 35.0246 19.9797 34.4633 19.9797C34.2311 19.9797 33.9947 20.0326 33.7731 20.1449Z" fill="url(#paint0_linear_1_966)"/>
<defs>
<linearGradient id="paint0_linear_1_966" x1="33.2007" y1="32.1318" x2="1.44678" y2="32.1318" gradientUnits="userSpaceOnUse">
<stop stop-color="#0FDDFF"/>
<stop offset="0.1" stop-color="#27B2F8"/>
<stop offset="0.2" stop-color="#3F87F1"/>
<stop offset="0.3" stop-color="#575BEA"/>
<stop offset="0.4" stop-color="#7143DF"/>
<stop offset="0.5" stop-color="#9057CB"/>
<stop offset="0.6" stop-color="#AF6BB6"/>
<stop offset="0.7" stop-color="#CD80A2"/>
<stop offset="0.8" stop-color="#EC948E"/>
<stop offset="0.830087" stop-color="#EF968C"/>
<stop offset="0.953682" stop-color="#EF968C"/>
<stop offset="1" stop-color="#EF968C"/>
</linearGradient>
</defs>
</svg>
