<svg viewBox="23.04 105.83999999999999 674.64 151.92" version="1.1" xmlns="http://www.w3.org/2000/svg" id="Layer_1" style="max-height: 500px" width="674.64" height="151.92">
  
  <defs>
    <style>
      .st0 {
        fill: #fff;
      }
    </style>
  </defs>
  <path d="M169.3,156.6l-57.1-28.8c-.2-.1-.8-.2-1.4-.2s-1.2.1-1.4.2l-57.2,28.8,57.1,28.8c.2.1.8.2,1.4.2s1.2-.1,1.4-.2l57.2-28.8ZM118.3,115.7l64.5,32.6c2.2,1.1,3.7,2.6,4.7,4.4.6,1.2,1,2.5,1,3.8s-.4,2.6-1,3.8c-1,1.8-2.5,3.4-4.7,4.4l-64.5,32.6c-2.2,1.1-4.9,1.7-7.5,1.7s-5.4-.6-7.5-1.7l-64.5-32.6c-2.2-1.1-3.7-2.6-4.7-4.4-.6-1.2-1-2.5-1-3.8s.4-2.6,1-3.8c1-1.8,2.5-3.4,4.7-4.4l64.5-32.6c2.2-1.1,4.9-1.7,7.5-1.7s5.3.6,7.5,1.7ZM178.7,177.2c3.4-1.7,7.4-.4,9.1,3,1.7,3.4.4,7.4-3,9.1l-59,29.8c-4.7,2.4-9.9,3.5-15.1,3.5h0c-5.3,0-10.5-1.2-15.1-3.5l-58.9-29.8c-3.4-1.7-4.7-5.7-3-9.1,1.7-3.4,5.7-4.7,9.1-3l58.9,29.8c2.8,1.3,5.9,2,9,2h0c3.2,0,6.3-.7,9-2l59-29.8ZM178.7,202.6c3.4-1.7,7.4-.4,9.1,3,1.7,3.4.4,7.4-3,9.1l-51.3,26c-7.1,3.6-14.8,5.4-22.6,5.4h0c-7.8,0-15.7-1.8-22.6-5.3l-51.3-26c-3.4-1.7-4.7-5.7-3-9.1s5.7-4.7,9.1-3l51.3,26c5.1,2.6,10.9,3.9,16.6,3.9h0c5.7,0,11.5-1.3,16.6-3.8l51.1-26.2Z" class="st0"/>
  <g>
    <g>
      <polygon points="217.3 142.4 236.3 142.4 259.2 196 282.3 142.4 299.8 142.4 266.7 219.2 250.3 219.2 217.3 142.4" class="st0"/>
      <path d="M300.3,163.1h16.3s0,19.3,0,28.7c0,2.4,0,14,11.2,14s13-9.7,13-13.3c0-9.6,0-29.4,0-29.4h16.4v56h-15.6v-6.5s-4.6,7.5-17.5,7.5-12.6-1.7-17.6-6.7c-5.6-5.5-6.2-14.5-6.2-17.5,0-10.7,0-32.8,0-32.8Z" class="st0"/>
      <polygon points="301.3 154.6 306.4 142.4 357.2 142.4 357.2 154.6 301.3 154.6" class="st0"/>
    </g>
    <path d="M522.5,201.7c-1.8,3.3-5.1,4.9-10,4.9s-7.5-2.7-7.5-8.3v-35.1h-16.6v35.5c0,6.9,1.8,12.3,5.1,15.9,3.3,3.7,8.2,5.5,14.5,5.5s11.3-2,15.1-5.9l.4,4.9h15.7v-55.9h-16.7v38.4Z" class="st0"/>
    <path d="M479,206.3c-2.1,0-3.5-.4-4.2-1.2-.7-.8-1.1-2.2-1.1-4.1v-27.9h9.8v-9.9h-9.8v-16.7h-16.6v16.7h-8.4v9.9h8.4v30.2c.2,11.2,6,16.9,17.1,16.9s6.4-.5,9.5-1.4h.5v-13h-.8c-1.3.4-2.7.5-4.4.5Z" class="st0"/>
    <path d="M616.5,141.1c-2.8,0-5.1.8-6.7,2.4-1.7,1.6-2.5,3.7-2.5,6.1s.9,4.6,2.6,6.2c1.7,1.6,3.9,2.4,6.7,2.4s5-.8,6.7-2.4c1.7-1.6,2.6-3.7,2.6-6.2s-.9-4.5-2.5-6.1c-1.7-1.6-3.9-2.4-6.7-2.4Z" class="st0"/>
    <path d="M431.6,142.8c-4.4-2-9.4-3.1-15-3.1s-10.6.9-15,2.8c-4.5,1.9-8,4.5-10.4,7.9-2.4,3.4-3.6,7.2-3.6,11.5,0,8.2,4.5,14.9,13.5,19.7,3.2,1.7,7.7,3.5,13.2,5.3,5.4,1.8,9.2,3.4,11.2,5,2,1.5,2.9,3.6,2.9,6.4s-.9,4.5-2.9,5.9c-2,1.4-4.8,2.2-8.5,2.2-9.8,0-14.6-4-14.6-12.1v-.7h-17.2v.7c0,5.1,1.3,9.6,3.9,13.5,2.6,3.9,6.5,6.9,11.4,9.1,4.9,2.2,10.5,3.3,16.5,3.3,8.6,0,15.6-2,20.8-5.8,5.2-3.9,7.8-9.4,7.8-16.2s-2.1-11.4-6.4-15.5c-4.2-4.1-10.9-7.5-20-10.3-4.8-1.5-8.5-3-11-4.7-2.3-1.6-3.5-3.5-3.5-5.7s1-4.4,3-6c2-1.5,4.9-2.3,8.6-2.3s6.8.9,8.9,2.8c2.1,1.8,3.1,4.4,3.1,7.7v.7h17.2v-.7c0-4.7-1.2-9-3.7-12.7-2.4-3.7-5.9-6.6-10.3-8.7Z" class="st0"/>
    <rect height="55.9" width="16.7" y="163.2" x="608.1" class="st0"/>
    <path d="M686.8,186.5c-.6-8.2-3.4-14.9-8.4-19.7-5-4.8-11.5-7.3-19.4-7.3s-10.5,1.3-14.6,3.7c-4.2,2.5-7.5,6.1-9.7,10.6-2.2,4.5-3.3,9.7-3.3,15.5v.7c0,9.2,2.5,16.6,7.6,22,5,5.4,11.8,8.1,20.2,8.1s15.2-2.8,20.2-8.2c5-5.4,7.5-12.7,7.5-21.6v-3.9ZM650.9,177.3c1.9-2.8,4.6-4.1,8.1-4.1s6.3,1.3,8.2,4.1c2,2.8,3,6.9,3,12s-1,10.5-3,13.3c-2,2.7-4.6,4-8.1,4s-6.3-1.3-8.2-4c-2-2.8-2.9-6.8-2.9-12.1s1-10.4,2.9-13.2Z" class="st0"/>
    <path d="M582,164.8c-3.6-3.5-8-5.2-13.2-5.2s-12.8,2.8-17,8.2c-4.1,5.4-6.1,12.7-6.1,21.7s2.1,17.1,6.2,22.5c4.2,5.5,9.8,8.2,16.7,8.2s10.5-2.1,14.2-6.2l.6,5.2h15.1v-76.8h-16.7v22.4ZM572.6,206.6c-3.4,0-5.8-1.3-7.6-4-1.8-2.7-2.7-6.8-2.7-12,0-11.6,3.4-17.3,10.4-17.3s7.4,1.8,9.2,5.5v22.3c-1.8,3.7-4.9,5.5-9.3,5.5Z" class="st0"/>
  </g>
</svg>